Coordinates
version=1
nRows=17
nColumns=33
inDegrees=yes

Units are S.I. units (second, meters, Newtons, ...)
Angles are in degrees.

endheader
time	ground_thorax_rot_x	ground_thorax_rot_y	ground_thorax_rot_z	ground_thorax_tx	ground_thorax_ty	ground_thorax_tz	clav_prot_r	clav_elev_r	scapula_abduction_r	scapula_elevation_r	scapula_upward_rot_r	scapula_winging_r	shoulder_elv_r	plane_of_elev_r	axial_rot_r	elbow_flexion_r	pro_sup_r	wrist_flex_r	wrist_dev_r	clav_prot_l	clav_elev_l	scapula_abduction_l	scapula_elevation_l	scapula_upward_rot_l	scapula_winging_l	shoulder_elv_l	plane_of_elev_l	axial_rot_l	elbow_flexion_l	pro_sup_l	wrist_flex_l	wrist_dev_l
      5.97000000	    -39.03389090	     -8.16737614	     15.41441282	   -212.26414123	    839.44412876	      2.04315497	     -1.65649404	    -45.00000000	     41.53111633	    -45.00000000	      9.30100585	  -3349.48920399	  -2088.76650634	     23.98422868	   -179.99999979	   2523.41134117	    230.00486623	     20.72637236	     12.27763935	     16.15198795	     38.46516957	    -40.03372464	    -45.00000000	    -42.93844294	   1885.36705983	  -3526.34026344	     26.01138055	    -27.27516861	    731.21380272	   -347.06289895	      4.30702786	    -20.09341708
      5.98000000	    -39.03028006	     -8.14302555	     15.37689279	   -213.55960231	    839.96696306	      2.08982145	     -1.53922546	    -45.00000000	     41.40275915	    -45.00000000	      8.80042172	  -3349.43670543	  -2088.71443634	     24.02904352	   -179.99999979	   2523.30325933	    230.13672697	     20.83806131	     12.23003702	     16.14097036	     38.24815888	    -40.04007549	    -45.00000000	    -43.29147105	   1885.43129466	  -3526.28928348	     26.04402308	    -27.14213472	    731.21588545	   -347.07818393	      4.16469149	    -20.06503017
      5.99000000	    -39.07391717	     -8.03926562	     15.33170493	   -214.83152475	    840.46024658	      2.13780629	     -1.70955848	    -45.00000000	     41.34547071	    -45.00000000	      8.69674562	  -3349.43533943	  -2088.56539502	     23.87989642	   -179.99999979	   2523.23085545	    230.22619322	     20.86720340	     12.10520359	     15.89808646	     38.65596391	    -39.95664900	    -45.00000000	    -42.77894807	   1885.39878047	  -3526.25102498	     25.67292428	    -27.83299139	    731.35935560	   -346.92131936	      4.39520837	    -20.17998669
      6.00000000	    -39.18369681	     -7.68235667	     14.93564788	   -216.08458288	    840.92986423	      2.18747609	     -1.75318706	    -45.00000000	     41.23233589	    -45.00000000	      8.31736748	  -3349.29901953	  -2088.58416783	     23.86273007	   -179.99999979	   2523.04563062	    230.30088282	     21.01676002	     12.03678107	     15.71357566	     38.81777737	    -39.84191519	    -45.00000000	    -41.92101685	   1885.25283754	  -3526.24618421	     25.35351255	    -28.10213959	    731.27125392	   -346.83852568	      4.37924053	    -20.17354257
      6.01000000	    -39.02277741	     -8.15352380	     15.42618729	   -217.31653035	    841.37917889	      2.23888294	     -1.29499895	    -45.00000000	     41.06424101	    -45.00000000	      7.42428122	  -3349.31885574	  -2088.42620543	     24.07834056	   -179.99999979	   2523.19316663	    230.56905466	     21.04952800	     12.05708110	     16.09380588	     37.94889596	    -39.94806112	    -45.00000000	    -44.17480808	   1885.52593018	  -3526.05518655	     26.05043448	    -27.15166933	    731.13371126	   -346.98237071	      3.92913655	    -19.98966672
      6.02000000	    -39.09831280	     -8.12140596	     15.32532331	   -218.51985004	    841.81080929	      2.29157586	     -1.52932531	    -45.00000000	     40.99953266	    -45.00000000	      7.57165833	  -3349.34012971	  -2088.34361647	     23.92502937	   -179.99999979	   2523.20157390	    230.66699537	     21.05605932	     11.96227815	     15.80563038	     38.43287377	    -39.77236336	    -45.00000000	    -43.36581728	   1885.61735214	  -3526.13558098	     25.62643435	    -28.16763900	    731.40314850	   -346.77351953	      4.18328598	    -20.15449389
      6.03000000	    -39.04771878	     -8.24868797	     15.46615865	   -219.69830112	    842.23076321	      2.34518859	     -1.35213540	    -45.00000000	     40.86076093	    -45.00000000	      7.13355077	  -3349.33155150	  -2088.20441661	     24.05784222	   -179.99999979	   2523.34649228	    230.81314727	     21.08373227	     11.96983642	     15.92830180	     38.15960749	    -39.71485108	    -45.00000000	    -43.97420222	   1885.73360687	  -3526.09747740	     25.85012337	    -28.12298893	    731.20878920	   -346.76639908	      3.95009611	    -20.03484297
      6.04000000	    -39.10868657	     -8.07648922	     15.33275548	   -220.84378708	    842.64039798	      2.39876774	     -1.50121771	    -45.00000000	     40.79696756	    -45.00000000	      6.98868893	  -3349.31358714	  -2088.09987927	     23.92164414	   -179.99999979	   2523.20957400	    230.85717819	     21.13212157	     11.85904179	     15.68526731	     38.54715544	    -39.64065243	    -45.00000000	    -43.41415470	   1885.62622656	  -3526.01382625	     25.44597166	    -28.64065636	    731.36713931	   -346.65665884	      4.17310112	    -20.15277368
      6.05000000	    -39.07613170	     -8.28960059	     15.46577792	   -221.95914716	    843.04292712	      2.45176407	     -1.30944758	    -45.00000000	     40.67095490	    -45.00000000	      6.57911375	  -3349.30164035	  -2088.04025465	     24.04767353	   -179.99999979	   2523.42509214	    230.95361012	     21.15339588	     11.90920093	     15.84431956	     38.17027703	    -39.57283729	    -45.00000000	    -44.13718795	   1885.86125922	  -3526.03400122	     25.72967780	    -28.54391497	    731.27855273	   -346.71777074	      3.88256505	    -20.03826547
      6.06000000	    -39.12238751	     -8.19236628	     15.37134000	   -223.03880597	    843.43745540	      2.50351027	     -1.35048861	    -45.00000000	     40.60147323	    -45.00000000	      6.34977396	  -3349.27592557	  -2087.98491202	     23.99368311	   -179.99999979	   2523.41592315	    230.96663051	     21.19770597	     11.87340698	     15.73117113	     38.24962229	    -39.50461447	    -45.00000000	    -43.97594084	   1885.87590678	  -3525.95903378	     25.59288413	    -28.76829122	    731.35892683	   -346.71292991	      3.96332950	    -20.08898879
      6.07000000	    -39.06677164	     -8.29365737	     15.43611519	   -224.08721908	    843.82460878	      2.55399107	     -1.18416684	    -45.00000000	     40.48700916	    -45.00000000	      5.95833113	  -3349.29271281	  -2087.90820205	     24.10377496	   -179.99999979	   2523.42024619	    230.94424683	     21.25129337	     11.89356367	     15.82562910	     37.89135192	    -39.53198871	    -45.00000000	    -44.69041141	   1885.98176328	  -3525.98425678	     25.78868632	    -28.59138584	    731.21316342	   -346.83335762	      3.76186914	    -19.98621068
      6.08000000	    -39.12173777	     -8.15730398	     15.33530882	   -225.09942404	    844.20034343	      2.60292254	     -1.32469303	    -45.00000000	     40.44246084	    -45.00000000	      5.87506901	  -3349.28554043	  -2087.82489342	     23.96819502	   -179.99999979	   2523.39842714	    230.86577314	     21.27226265	     11.82903461	     15.62238210	     38.21687986	    -39.43741931	    -45.00000000	    -44.21307810	   1885.91968268	  -3525.88612968	     25.46714508	    -29.01974424	    731.39209122	   -346.82245414	      3.99944695	    -20.10524311
      6.09000000	    -39.21045586	     -7.82783322	     14.97148184	   -226.08091880	    844.56365045	      2.65044762	     -1.37487571	    -45.00000000	     40.41075264	    -45.00000000	      5.67933390	  -3349.22054009	  -2087.86619509	     23.91033740	   -179.99999979	   2523.26673364	    230.74905077	     21.37012501	     11.79636077	     15.44104542	     38.40309669	    -39.36824199	    -45.00000000	    -43.46234913	   1885.75031352	  -3525.86912363	     25.11756348	    -29.37707500	    731.32165690	   -346.82160899	      4.06353579	    -20.11306528
      6.10000000	    -39.08534766	     -8.33243041	     15.45783902	   -227.03396271	    844.91213623	      2.69635003	     -1.14231545	    -45.00000000	     40.29618180	    -45.00000000	      5.38112668	  -3349.31577189	  -2087.67511014	     24.05581732	   -179.99999979	   2523.69133785	    230.61589186	     21.28866806	     11.89092588	     15.70167400	     37.96673060	    -39.39337005	    -45.00000000	    -44.97487120	   1886.13282055	  -3525.87917664	     25.58865010	    -29.27237155	    731.29028264	   -347.01067735	      3.70458307	    -19.97760862
      6.11000000	    -39.11746134	     -8.04827708	     15.23156635	   -227.95174850	    845.24101436	      2.73995668	     -1.26974897	    -45.00000000	     40.17213056	    -45.00000000	      5.24286304	  -3349.29083148	  -2087.64043089	     23.97512046	   -179.99999979	   2523.50927490	    230.39929464	     21.35439054	     11.81041385	     15.45970478	     38.26277731	    -39.25955774	    -45.00000000	    -44.25926494	   1885.90956408	  -3525.80271202	     25.22892732	    -29.50531926	    731.36339969	   -347.00747638	      4.01393718	    -20.09833102
      6.12000000	    -39.08371021	     -8.24632102	     15.34932588	   -228.84133724	    845.55013665	      2.78092701	     -1.09931596	    -45.00000000	     40.10022338	    -45.00000000	      4.95927018	  -3349.31082650	  -2087.59901037	     24.08950127	   -179.99999979	   2523.77275683	    230.15061359	     21.33537992	     11.90298341	     15.63265638	     37.84713906	    -39.22131056	    -45.00000000	    -45.00000000	   1886.18031716	  -3525.85316814	     25.56034094	    -29.48472170	    731.26026294	   -347.12271330	      3.71076070	    -19.97314429
      6.13000000	    -39.11300082	     -8.07799705	     15.24752154	   -229.69423164	    845.83475124	      2.81843688	     -1.20719296	    -45.00000000	     40.06605425	    -45.00000000	      4.88449130	  -3349.33237463	  -2087.50790114	     23.98503638	   -179.99999979	   2523.70730418	    229.88080532	     21.35087186	     11.84076303	     15.42644289	     38.14577968	    -39.17567302	    -45.00000000	    -44.59906271	   1886.05290363	  -3525.75517225	     25.23937501	    -29.90607956	    731.36577132	   -347.06650297	      3.91663821	    -20.07412769
